<svg xmlns="http://www.w3.org/2000/svg" width="20" height="19.941" viewBox="0 0 20 19.941">
    <path id="mode_moon_icon"
        d="M10.812,20.264A10.549,10.549,0,0,1,5.676.5,1.4,1.4,0,0,1,7.191.594a1.387,1.387,0,0,1,.58,1.4l-.755-.058.714.128a9.089,9.089,0,0,0,5.926,10.262h0a9.182,9.182,0,0,0,4.916.308,1.416,1.416,0,0,1,1.544,2.014A10.552,10.552,0,0,1,10.812,20.264ZM6.3,1.813A9.1,9.1,0,1,0,18.787,14.065a10.732,10.732,0,0,1-5.6-.371A10.552,10.552,0,0,1,6.3,1.813Z"
        transform="translate(-0.261 -0.323)" fill="#555" />
</svg>
