<svg id="done_successfully" data-name="done successfully" xmlns="http://www.w3.org/2000/svg" width="148.565" height="148.565" viewBox="0 0 148.565 148.565">
  <circle id="Ellipse_49" cx="74.283" cy="74.283" r="74.283" transform="translate(0 0)" fill="#3db39e"/>
  <path id="Path_4741" d="M305.94,114.609l-65.694,68.015.116,7.312h3.018L314.529,132.6A75.538,75.538,0,0,0,305.94,114.609Z" transform="translate(-169.445 -80.834)" fill="#37a18e"/>
  <path id="Path_4742" d="M213.77,69.345l-13.116-13a4.7,4.7,0,0,0-6.5,0l-56.061,57.918-24.258-23.91a4.7,4.7,0,0,0-6.5,0L95.73,101.844a4.554,4.554,0,0,0,0,6.384L134.5,146.646a6.384,6.384,0,0,0,7.66,0l71.613-70.8A4.7,4.7,0,0,0,213.77,69.345Z" transform="translate(-66.597 -38.82)" fill="#f2f1ef"/>
  <path id="Path_4743" d="M142.435,176.438l71.613-70.8a4.554,4.554,0,0,0,0-6.384l-2.089-1.973-73.471,72.194L97.865,129.895l-1.741,1.741a4.554,4.554,0,0,0,0,6.384l38.767,38.418a4.713,4.713,0,0,0,3.83,1.277A4.6,4.6,0,0,0,142.435,176.438Z" transform="translate(-66.875 -68.611)" fill="#e6e5e3"/>
</svg>
