<svg xmlns="http://www.w3.org/2000/svg" width="21.306" height="14.75" viewBox="0 0 21.306 14.75">
    <g id="mail_email_e-mail_letter" transform="translate(-3 -7)">
        <path id="Path_32"
            d="M23.487,13a.819.819,0,0,0-.819.819v6.556a.819.819,0,0,1-.819.819H5.458a.819.819,0,0,1-.819-.819V13.819a.819.819,0,1,0-1.639,0v6.556a2.462,2.462,0,0,0,2.458,2.458H21.848a2.462,2.462,0,0,0,2.458-2.458V13.819A.819.819,0,0,0,23.487,13Z"
            transform="translate(0 -1.083)" fill="#999" />
        <path id="Path_33"
            d="M13.2,16.67a.819.819,0,0,0,.983,0l9.678-7.26A.819.819,0,0,0,24.1,8.4a2.508,2.508,0,0,0-.483-.68A2.458,2.458,0,0,0,21.882,7H5.493a2.458,2.458,0,0,0-1.737.721,2.508,2.508,0,0,0-.483.68.819.819,0,0,0,.246,1.008Zm-7.7-8.031H21.882a.738.738,0,0,1,.229,0L13.688,14.99,5.264,8.639A.738.738,0,0,1,5.493,8.639Z"
            transform="translate(-0.035)" fill="#999" />
    </g>
</svg>
