<svg xmlns="http://www.w3.org/2000/svg" width="19.633" height="19.635" viewBox="0 0 19.633 19.635">
  <g id="Home_-_icon" data-name="Home  - icon" transform="translate(-0.5 0.001)">
    <path id="Path_4568" data-name="Path 4568" d="M19.605,8.54h0L11.594.529a1.807,1.807,0,0,0-2.556,0L1.033,8.534l-.008.008a1.807,1.807,0,0,0,1.2,3.08l.056,0H2.6v5.894a2.118,2.118,0,0,0,2.116,2.115H7.852a.575.575,0,0,0,.575-.575V14.438a.966.966,0,0,1,.965-.965H11.24a.966.966,0,0,1,.965.965v4.621a.575.575,0,0,0,.575.575h3.134a2.118,2.118,0,0,0,2.116-2.115V11.624h.3a1.808,1.808,0,0,0,1.279-3.085Zm-.815,1.742a.653.653,0,0,1-.465.193h-.871a.575.575,0,0,0-.575.575v6.469a.966.966,0,0,1-.965.965H13.356V14.438a2.118,2.118,0,0,0-2.116-2.116H9.392a2.118,2.118,0,0,0-2.116,2.116v4.046H4.718a.966.966,0,0,1-.965-.965V11.049a.575.575,0,0,0-.575-.575H2.294a.656.656,0,0,1-.453-1.121h0L9.852,1.342a.657.657,0,0,1,.929,0l8.007,8.007,0,0a.659.659,0,0,1,0,.928Zm0,0" transform="translate(0)" fill="#fff"/>
  </g>
</svg>
