<svg xmlns="http://www.w3.org/2000/svg" version="1.1" xmlns:xlink="http://www.w3.org/1999/xlink" xmlns:svgjs="http://svgjs.com/svgjs" width="512" height="512" x="0" y="0" viewBox="0 0 512 512" style="enable-background:new 0 0 512 512" xml:space="preserve"><g>
<path xmlns="http://www.w3.org/2000/svg" style="" d="M256,0C147.925,0,60,87.925,60,196c0,34.594,9.14,68.605,26.431,98.355  c4.031,6.936,8.537,13.695,13.395,20.09L247.484,512h17.031l147.659-197.554c4.857-6.396,9.363-13.154,13.395-20.09  C442.86,264.605,452,230.594,452,196C452,87.925,364.075,0,256,0z M256,261c-35.841,0-65-29.159-65-65s29.159-65,65-65  s65,29.159,65,65S291.841,261,256,261z" fill="#FFB01C" data-original="#ffb01c"></path>
<path xmlns="http://www.w3.org/2000/svg" style="" d="M256,0v131c35.841,0,65,29.159,65,65s-29.159,65-65,65v251h8.516l147.659-197.554  c4.857-6.396,9.363-13.154,13.395-20.09C442.86,264.605,452,230.594,452,196C452,87.925,364.075,0,256,0z" fill="#FF9400" data-original="#ff9400"></path>
<g xmlns="http://www.w3.org/2000/svg">
</g>
<g xmlns="http://www.w3.org/2000/svg">
</g>
<g xmlns="http://www.w3.org/2000/svg">
</g>
<g xmlns="http://www.w3.org/2000/svg">
</g>
<g xmlns="http://www.w3.org/2000/svg">
</g>
<g xmlns="http://www.w3.org/2000/svg">
</g>
<g xmlns="http://www.w3.org/2000/svg">
</g>
<g xmlns="http://www.w3.org/2000/svg">
</g>
<g xmlns="http://www.w3.org/2000/svg">
</g>
<g xmlns="http://www.w3.org/2000/svg">
</g>
<g xmlns="http://www.w3.org/2000/svg">
</g>
<g xmlns="http://www.w3.org/2000/svg">
</g>
<g xmlns="http://www.w3.org/2000/svg">
</g>
<g xmlns="http://www.w3.org/2000/svg">
</g>
<g xmlns="http://www.w3.org/2000/svg">
</g>
</g></svg>