<svg xmlns="http://www.w3.org/2000/svg" width="111.12" height="111.141"
    viewBox="0 0 111.12 111.141">
    <g id="Group_454" transform="translate(-124.44 -324.43)">
        <g id="cacr_icon_2_" transform="translate(140.402 374.876)">
            <path id="Path_1050"
                d="M11.733,21.093H5.547a1.547,1.547,0,1,1,0-3.093h6.187a1.547,1.547,0,0,1,0,3.093Z"
                transform="translate(8.373 16.027)" fill="#fc0" stroke="#fc0" stroke-width="2" />
            <path id="Path_1051"
                d="M42.114,37.84H38.248a1.547,1.547,0,0,1,0-3.093h2.583l2.085-11.111A10.826,10.826,0,0,0,32.061,13.093H21.906L16.984,34.747h8.89a1.547,1.547,0,0,1,0,3.093H15.048a1.547,1.547,0,0,1-1.51-1.887l5.624-24.747A1.545,1.545,0,0,1,20.671,10h11.39a13.937,13.937,0,0,1,13.92,13.92L43.633,36.578A1.542,1.542,0,0,1,42.114,37.84Z"
                transform="translate(28.259 -0.72)" fill="#fc0" stroke="#fc0" stroke-width="2" />
            <path id="Path_1052"
                d="M24.733,31.467a7.733,7.733,0,1,1,7.733-7.733A7.742,7.742,0,0,1,24.733,31.467Zm0-12.373a4.64,4.64,0,1,0,4.64,4.64A4.646,4.646,0,0,0,24.733,19.093Z"
                transform="translate(35.587 11.84)" fill="#fc0" stroke="#fc0" stroke-width="2" />
            <path id="Path_1053"
                d="M13.733,31.467a7.733,7.733,0,1,1,7.733-7.733A7.742,7.742,0,0,1,13.733,31.467Zm0-12.373a4.64,4.64,0,1,0,4.64,4.64A4.646,4.646,0,0,0,13.733,19.093Z"
                transform="translate(12.56 11.84)" fill="#fc0" stroke="#fc0" stroke-width="2" />
            <path id="Path_1054"
                d="M15.92,12.093H3.547A1.547,1.547,0,1,1,3.547,9H15.92a1.547,1.547,0,0,1,0,3.093Z"
                transform="translate(4.187 -2.813)" fill="#fc0" stroke="#fc0" stroke-width="2" />
            <path id="Path_1055"
                d="M18.013,15.093H2.547a1.547,1.547,0,0,1,0-3.093H18.013a1.547,1.547,0,0,1,0,3.093Z"
                transform="translate(2.093 3.467)" fill="#fc0" stroke="#fc0" stroke-width="2" />
            <path id="Path_1056"
                d="M20.107,18.093H1.547a1.547,1.547,0,1,1,0-3.093h18.56a1.547,1.547,0,0,1,0,3.093Z"
                transform="translate(0 9.747)" fill="#fc0" stroke="#fc0" stroke-width="2" />
            <path id="Path_1057"
                d="M34.933,44.12H24.107a1.547,1.547,0,0,1,0-3.093H33.7l7.028-30.933H5.547A1.547,1.547,0,1,1,5.547,7h37.12a1.547,1.547,0,0,1,1.51,1.887L36.443,42.914a1.548,1.548,0,0,1-1.51,1.206Z"
                transform="translate(8.373 -7)" fill="#fc0" stroke="#fc0" stroke-width="2" />
        </g>
        <path id="Subtraction_1"
            d="M87.97,111.141H83.34a4.63,4.63,0,1,1,0-9.26h4.63a13.906,13.906,0,0,0,13.89-13.89V45.043a13.872,13.872,0,0,0-6.122-11.515L63.33,11.66a13.794,13.794,0,0,0-15.539,0L15.381,33.528A13.872,13.872,0,0,0,9.26,45.043V87.991a13.906,13.906,0,0,0,13.89,13.89h4.63a4.63,4.63,0,0,1,0,9.26h-4.63A23.159,23.159,0,0,1,0,87.991V45.043A23.119,23.119,0,0,1,10.186,25.851L42.6,3.979a23.062,23.062,0,0,1,25.9,0l32.41,21.872A23.15,23.15,0,0,1,111.12,45.043V87.991a23.158,23.158,0,0,1-23.15,23.15Z"
            transform="translate(124.44 324.43)" fill="#fc0" />
    </g>
</svg>
