<svg xmlns="http://www.w3.org/2000/svg" width="18.02" height="20.797" viewBox="0 0 18.02 20.797">
    <g id="layer1" transform="translate(-0.793 -288.795)">
        <path id="path893"
            d="M9.791.261A2.068,2.068,0,0,0,8.428,3.892,6.236,6.236,0,0,0,3.567,9.97a16.057,16.057,0,0,1-1.172,6.992,2.075,2.075,0,0,0,.48,4.1H16.73a2.075,2.075,0,0,0,.48-4.1A16.058,16.058,0,0,1,16.039,9.97a6.237,6.237,0,0,0-4.88-6.083A2.068,2.068,0,0,0,9.791.261Zm0,1.386a.694.694,0,1,1-.691.692A.684.684,0,0,1,9.791,1.647ZM9.8,5.12a4.824,4.824,0,0,1,4.85,4.85,18.385,18.385,0,0,0,1.07,6.929H3.882A18.384,18.384,0,0,0,4.953,9.97,4.824,4.824,0,0,1,9.8,5.12ZM2.875,18.286H16.73a.694.694,0,1,1,0,1.387H2.875a.694.694,0,1,1,0-1.387Z"
            transform="translate(0 288.533)" fill="#555" />
    </g>
</svg>
