<svg xmlns="http://www.w3.org/2000/svg" width="16" height="20" viewBox="0 0 16 20">
  <g id="g2055" transform="translate(-4 -292.65)">
    <path id="path2045" d="M12,292.65a5.011,5.011,0,0,0-5,5v3a2.9,2.9,0,0,0-3,2.832v6.334a2.851,2.851,0,0,0,2.834,2.834H17.166A2.851,2.851,0,0,0,20,309.816v-6.334a2.849,2.849,0,0,0-2.834-2.832H9v-3a3,3,0,0,1,6,0,1,1,0,0,0,2,0A5.011,5.011,0,0,0,12,292.65Zm-5.166,10H17.166a.81.81,0,0,1,.834.832v6.334a.812.812,0,0,1-.834.834H6.834A.812.812,0,0,1,6,309.816v-6.334A.81.81,0,0,1,6.834,302.65Z" fill="#999"/>
  </g>
</svg>
